<?xml version="1.0" encoding="utf-8"?>
<!-- Generator: Adobe Illustrator 19.0.0, SVG Export Plug-In . SVG Version: 6.00 Build 0)  -->
<svg version="1.1" id="layer" xmlns="http://www.w3.org/2000/svg" xmlns:xlink="http://www.w3.org/1999/xlink" x="0px" y="0px"
	 viewBox="-153 -46 652 652" style="enable-background:new -153 -46 652 652;" xml:space="preserve">
<style type="text/css">
	.st0{fill:#545D5D;}
	.st1{fill:#008FC0;}
	.st2{fill:#A41E34;}
</style>
<g>
	<path class="st0" d="M103.1,285l-2.8-2.4l2.4-2.7l2.8,2.5c0.3-0.7,0.5-1.5,0.5-2.3v0c0-2.9-2.1-5.3-5.1-5.3c-3,0-5.1,2.4-5.1,5.3v0
		c0,2.9,2.1,5.3,5.1,5.3C101.7,285.4,102.4,285.3,103.1,285 M107.7,289.1l-1.9-1.7c-1.4,0.9-3.2,1.5-5,1.5c-5.2,0-9-3.9-9-8.7v0
		c0-4.8,3.8-8.8,9.1-8.8c5.2,0,9,3.9,9,8.7v0c0,1.8-0.6,3.5-1.5,4.9l1.7,1.5L107.7,289.1z"/>
	<path class="st0" d="M112.9,281.3v-9.7h3.7v9.6c0,2.8,1.4,4.2,3.7,4.2c2.3,0,3.7-1.4,3.7-4.1v-9.7h3.7v9.6c0,5.1-2.9,7.7-7.5,7.7
		C115.7,288.9,112.9,286.3,112.9,281.3"/>
</g>
<polygon class="st0" points="131.5,271.6 144.4,271.6 144.4,274.9 135.3,274.9 135.3,278.4 143.3,278.4 143.3,281.7 135.3,281.7 
	135.3,285.3 144.5,285.3 144.5,288.6 131.5,288.6 "/>
<polygon class="st0" points="147.8,271.6 160.6,271.6 160.6,274.9 151.5,274.9 151.5,278.4 159.5,278.4 159.5,281.7 151.5,281.7 
	151.5,285.3 160.7,285.3 160.7,288.6 147.8,288.6 "/>
<polygon class="st0" points="164.1,271.6 167.5,271.6 175.5,282.1 175.5,271.6 179.2,271.6 179.2,288.6 176,288.6 167.8,277.8 
	167.8,288.6 164.1,288.6 "/>
<g>
	<path class="st0" d="M182.1,286.1l2.2-2.6c1.5,1.3,3.1,2.1,5.1,2.1c1.5,0,2.5-0.6,2.5-1.6v-0.1c0-0.9-0.6-1.4-3.4-2.2
		c-3.4-0.9-5.6-1.8-5.6-5.2v0c0-3.1,2.5-5.1,6-5.1c2.5,0,4.6,0.8,6.3,2.2l-1.9,2.8c-1.5-1-3-1.7-4.4-1.7s-2.2,0.7-2.2,1.5v0
		c0,1.1,0.7,1.5,3.7,2.2c3.4,0.9,5.4,2.1,5.4,5.1v0c0,3.4-2.6,5.3-6.2,5.3C186.7,288.8,184.1,287.9,182.1,286.1"/>
</g>
<polygon class="st0" points="198.8,271.6 202.5,271.6 202.5,285.2 211,285.2 211,288.6 198.8,288.6 "/>
<path class="st0" d="M223.6,281.5l-2.3-5.5l-2.3,5.5H223.6z M219.7,271.5h3.4l7.3,17.1h-3.9l-1.6-3.8h-7.2l-1.6,3.8h-3.8
	L219.7,271.5z"/>
<polygon class="st0" points="233,271.6 236.5,271.6 244.4,282.1 244.4,271.6 248.1,271.6 248.1,288.6 244.9,288.6 236.7,277.8 
	236.7,288.6 233,288.6 "/>
<g>
	<path class="st0" d="M258.8,285.2c3.1,0,5.1-2.1,5.1-5.1v0c0-3-2.1-5.1-5.1-5.1h-2.9v10.2H258.8z M252.2,271.6h6.6
		c5.3,0,9,3.7,9,8.4v0.1c0,4.8-3.7,8.5-9,8.5h-6.6V271.6z"/>
	<path class="st0" d="M286.6,285.3c1.7,0,2.6-0.6,2.6-1.8v0c0-1.1-0.8-1.8-2.8-1.8h-4.3v3.7H286.6z M285.6,278.5
		c1.7,0,2.7-0.5,2.7-1.8v-0.1c0-1.1-0.9-1.7-2.5-1.7h-3.7v3.6H285.6z M278.5,271.6h7.9c1.9,0,3.5,0.5,4.4,1.5
		c0.8,0.8,1.2,1.7,1.2,2.9v0c0,1.9-1,3-2.2,3.7c2,0.8,3.2,1.9,3.2,4.2v0c0,3.1-2.5,4.7-6.4,4.7h-8.1V271.6z"/>
	<path class="st0" d="M295.7,281.3v-9.7h3.7v9.6c0,2.8,1.4,4.2,3.7,4.2s3.7-1.4,3.7-4.1v-9.7h3.7v9.6c0,5.1-2.9,7.7-7.5,7.7
		C298.5,288.9,295.7,286.3,295.7,281.3"/>
</g>
<rect x="314.5" y="271.6" class="st0" width="3.7" height="17"/>
<polygon class="st0" points="322.5,271.6 326.3,271.6 326.3,285.2 334.7,285.2 334.7,288.6 322.5,288.6 "/>
<g>
	<path class="st0" d="M344.2,285.2c3.1,0,5.1-2.1,5.1-5.1v0c0-3-2.1-5.1-5.1-5.1h-2.9v10.2H344.2z M337.5,271.6h6.6
		c5.3,0,9,3.7,9,8.4v0.1c0,4.8-3.7,8.5-9,8.5h-6.6V271.6z"/>
</g>
<rect x="356.7" y="271.6" class="st0" width="3.7" height="17"/>
<polygon class="st0" points="364.7,271.6 368.1,271.6 376.1,282.1 376.1,271.6 379.8,271.6 379.8,288.6 376.6,288.6 368.4,277.8 
	368.4,288.6 364.7,288.6 "/>
<g>
	<path class="st0" d="M383.1,280.1L383.1,280.1c0-4.9,3.8-8.8,8.9-8.8c3.1,0,4.9,0.8,6.7,2.3l-2.4,2.8c-1.3-1.1-2.5-1.7-4.4-1.7
		c-2.7,0-4.9,2.4-4.9,5.3v0c0,3.1,2.1,5.4,5.1,5.4c1.4,0,2.6-0.3,3.5-1V282h-3.8v-3.2h7.4v7.4c-1.7,1.5-4.2,2.7-7.3,2.7
		C386.8,288.9,383.1,285.2,383.1,280.1"/>
</g>
<path class="st0" d="M420,281.5l-2.3-5.5l-2.3,5.5H420z M416,271.5h3.4l7.3,17.1h-3.9l-1.6-3.8h-7.2l-1.6,3.8h-3.8L416,271.5z"/>
<polygon class="st0" points="429.4,271.6 432.8,271.6 440.8,282.1 440.8,271.6 444.5,271.6 444.5,288.6 441.3,288.6 433.1,277.8 
	433.1,288.6 429.4,288.6 "/>
<g>
	<path class="st0" d="M455.2,285.2c3.1,0,5.1-2.1,5.1-5.1v0c0-3-2.1-5.1-5.1-5.1h-2.9v10.2H455.2z M448.6,271.6h6.6
		c5.3,0,9,3.7,9,8.4v0.1c0,4.8-3.7,8.5-9,8.5h-6.6V271.6z"/>
	<path class="st0" d="M91.8,309.2L91.8,309.2c0-4.9,3.6-8.8,8.9-8.8c3.2,0,5.1,1.1,6.7,2.6l-2.4,2.7c-1.3-1.2-2.6-1.9-4.3-1.9
		c-2.9,0-4.9,2.4-4.9,5.3v0c0,2.9,2,5.3,4.9,5.3c1.9,0,3.1-0.8,4.5-2l2.4,2.4c-1.7,1.9-3.7,3-7,3C95.5,317.9,91.8,314.1,91.8,309.2"
		/>
	<path class="st0" d="M123.4,309.2L123.4,309.2c0-3-2.1-5.4-5.1-5.4c-3,0-5.1,2.4-5.1,5.3v0c0,2.9,2.1,5.3,5.1,5.3
		C121.3,314.5,123.4,312.1,123.4,309.2 M109.2,309.2L109.2,309.2c0-4.9,3.8-8.8,9.1-8.8c5.2,0,9,3.9,9,8.7v0c0,4.8-3.8,8.8-9.1,8.8
		C113,317.9,109.2,314,109.2,309.2"/>
</g>
<polygon class="st0" points="130.6,300.6 134.1,300.6 142,311.1 142,300.6 145.7,300.6 145.7,317.6 142.5,317.6 134.3,306.8 
	134.3,317.6 130.6,317.6 "/>
<g>
	<path class="st0" d="M148.6,315.2l2.2-2.6c1.5,1.3,3.1,2.1,5.1,2.1c1.5,0,2.5-0.6,2.5-1.6v-0.1c0-0.9-0.6-1.4-3.4-2.2
		c-3.4-0.9-5.6-1.8-5.6-5.2v0c0-3.1,2.5-5.1,6-5.1c2.5,0,4.6,0.8,6.3,2.2l-1.9,2.8c-1.5-1-3-1.7-4.4-1.7s-2.2,0.7-2.2,1.5v0
		c0,1.1,0.7,1.5,3.7,2.2c3.4,0.9,5.4,2.1,5.4,5.1v0c0,3.4-2.6,5.3-6.2,5.3C153.3,317.9,150.7,317,148.6,315.2"/>
</g>
<polygon class="st0" points="168.9,304.1 163.8,304.1 163.8,300.6 177.8,300.6 177.8,304.1 172.7,304.1 172.7,317.6 168.9,317.6 "/>
<g>
	<path class="st0" d="M188.2,308.9c1.8,0,2.9-1,2.9-2.4v0c0-1.6-1.1-2.4-2.9-2.4h-3.7v4.9H188.2z M180.7,300.6h7.8
		c2.2,0,3.8,0.6,4.9,1.7c1,0.9,1.5,2.3,1.5,3.9v0c0,2.7-1.5,4.5-3.6,5.3l4.2,6.1H191l-3.6-5.4h-2.9v5.4h-3.7V300.6z"/>
	<path class="st0" d="M198,310.3v-9.7h3.7v9.6c0,2.8,1.4,4.2,3.7,4.2s3.7-1.4,3.7-4.1v-9.7h3.7v9.6c0,5.2-2.9,7.7-7.5,7.7
		C200.8,317.9,198,315.3,198,310.3"/>
	<path class="st0" d="M215.9,309.2L215.9,309.2c0-4.9,3.6-8.8,8.9-8.8c3.2,0,5.1,1.1,6.7,2.6l-2.4,2.7c-1.3-1.2-2.6-1.9-4.3-1.9
		c-2.9,0-4.9,2.4-4.9,5.3v0c0,2.9,2,5.3,4.9,5.3c1.9,0,3.1-0.8,4.5-2l2.4,2.4c-1.7,1.9-3.7,3-7,3
		C219.6,317.9,215.9,314.1,215.9,309.2"/>
</g>
<polygon class="st0" points="238.5,304.1 233.3,304.1 233.3,300.6 247.4,300.6 247.4,304.1 242.2,304.1 242.2,317.6 238.5,317.6 "/>
<rect x="250.4" y="300.6" class="st0" width="3.7" height="17"/>
<g>
	<path class="st0" d="M271.8,309.2L271.8,309.2c0-3-2.1-5.4-5.1-5.4c-3,0-5.1,2.4-5.1,5.3v0c0,2.9,2.1,5.3,5.1,5.3
		C269.7,314.5,271.8,312.1,271.8,309.2 M257.7,309.2L257.7,309.2c0-4.9,3.8-8.8,9.1-8.8c5.2,0,9,3.9,9,8.7v0c0,4.8-3.8,8.8-9.1,8.8
		C261.4,317.9,257.7,314,257.7,309.2"/>
</g>
<polygon class="st0" points="279.1,300.6 282.5,300.6 290.5,311.1 290.5,300.6 294.2,300.6 294.2,317.6 291,317.6 282.8,306.8 
	282.8,317.6 279.1,317.6 "/>
<g>
	<path class="st0" d="M304.8,309.2L304.8,309.2c0-4.9,3.6-8.8,8.9-8.8c3.2,0,5.1,1.1,6.7,2.6l-2.4,2.7c-1.3-1.2-2.6-1.9-4.3-1.9
		c-2.9,0-4.9,2.4-4.9,5.3v0c0,2.9,2,5.3,4.9,5.3c1.9,0,3.1-0.8,4.5-2l2.4,2.4c-1.7,1.9-3.7,3-7,3
		C308.5,317.9,304.8,314.1,304.8,309.2"/>
	<path class="st0" d="M336.4,309.2L336.4,309.2c0-3-2.1-5.4-5.1-5.4c-3,0-5.1,2.4-5.1,5.3v0c0,2.9,2.1,5.3,5.1,5.3
		C334.3,314.5,336.4,312.1,336.4,309.2 M322.2,309.2L322.2,309.2c0-4.9,3.8-8.8,9.1-8.8c5.2,0,9,3.9,9,8.7v0c0,4.8-3.8,8.8-9.1,8.8
		C326,317.9,322.2,314,322.2,309.2"/>
</g>
<polygon class="st0" points="343.6,300.6 347.6,300.6 352.1,307.8 356.6,300.6 360.6,300.6 360.6,317.6 356.9,317.6 356.9,306.5 
	352.1,313.8 352,313.8 347.3,306.6 347.3,317.6 343.6,317.6 "/>
<polygon class="st0" points="364.7,300.6 368.7,300.6 373.2,307.8 377.7,300.6 381.7,300.6 381.7,317.6 378,317.6 378,306.5 
	373.2,313.8 373.1,313.8 368.4,306.6 368.4,317.6 364.7,317.6 "/>
<rect x="385.9" y="300.6" class="st0" width="3.7" height="17"/>
<g>
	<path class="st0" d="M392.8,315.2l2.2-2.6c1.5,1.3,3.1,2.1,5.1,2.1c1.5,0,2.5-0.6,2.5-1.6v-0.1c0-0.9-0.6-1.4-3.4-2.2
		c-3.4-0.9-5.6-1.8-5.6-5.2v0c0-3.1,2.5-5.1,5.9-5.1c2.5,0,4.6,0.8,6.3,2.2l-1.9,2.8c-1.5-1-3-1.7-4.4-1.7s-2.2,0.7-2.2,1.5v0
		c0,1.1,0.7,1.5,3.7,2.2c3.4,0.9,5.4,2.1,5.4,5.1v0c0,3.4-2.6,5.3-6.2,5.3C397.4,317.9,394.8,317,392.8,315.2"/>
	<path class="st0" d="M408.1,315.2l2.2-2.6c1.5,1.3,3.1,2.1,5.1,2.1c1.5,0,2.5-0.6,2.5-1.6v-0.1c0-0.9-0.6-1.4-3.4-2.2
		c-3.4-0.9-5.6-1.8-5.6-5.2v0c0-3.1,2.5-5.1,5.9-5.1c2.5,0,4.6,0.8,6.3,2.2l-1.9,2.8c-1.5-1-3-1.7-4.4-1.7c-1.4,0-2.2,0.7-2.2,1.5v0
		c0,1.1,0.7,1.5,3.7,2.2c3.4,0.9,5.4,2.1,5.4,5.1v0c0,3.4-2.6,5.3-6.2,5.3C412.7,317.9,410.1,317,408.1,315.2"/>
</g>
<rect x="424.9" y="300.6" class="st0" width="3.7" height="17"/>
<g>
	<path class="st0" d="M446.3,309.2L446.3,309.2c0-3-2.1-5.4-5.1-5.4c-3,0-5.1,2.4-5.1,5.3v0c0,2.9,2.1,5.3,5.1,5.3
		C444.2,314.5,446.3,312.1,446.3,309.2 M432.2,309.2L432.2,309.2c0-4.9,3.8-8.8,9.1-8.8c5.3,0,9,3.9,9,8.7v0c0,4.8-3.8,8.8-9.1,8.8
		C435.9,317.9,432.2,314,432.2,309.2"/>
</g>
<polygon class="st0" points="453.6,300.6 457,300.6 465,311.1 465,300.6 468.7,300.6 468.7,317.6 465.5,317.6 457.2,306.8 
	457.2,317.6 453.6,317.6 "/>
<g>
	<g>
		<path class="st1" d="M-67.7,277c3.7-4.4,8.1-6.6,13.2-6.6c3,0,5.7,0.6,8.1,1.7c2.3,1.1,4.3,2.7,6,4.8c1.6,2,2.9,4.6,3.7,7.5
			c0.8,3,1.3,6.2,1.3,9.8c0,3.7-0.5,7.1-1.5,10.1c-1,3-2.4,5.6-4.1,7.7c-1.8,2.1-3.8,3.8-6.2,4.9c-2.4,1.2-5,1.7-7.7,1.7
			c-5.1,0-9.3-1.6-12.6-4.6v3.5h-8.2V254h8.2V277z M-67.7,306.7c3.6,3.7,7.6,5.6,12.1,5.6c3.5,0,6.3-1.5,8.4-4.5
			c2.1-3,3.1-7.5,3.1-13.5c0-5.7-1-10-2.9-12.9c-2-2.9-4.7-4.4-8.2-4.4c-4.6,0-8.8,2.6-12.5,7.9V306.7z"/>
		<path class="st1" d="M-11.1,318.7c-3.2,0-6.2-0.5-8.8-1.6c-2.7-1.1-4.9-2.6-6.8-4.7c-1.9-2-3.4-4.6-4.4-7.5
			c-1.1-3-1.6-6.4-1.6-10.3c0-3.8,0.5-7.2,1.6-10.2c1-3,2.5-5.5,4.4-7.6c1.9-2.1,4.2-3.7,6.8-4.7c2.7-1.1,5.6-1.6,8.9-1.6
			c2.5,0,4.8,0.3,6.9,1c2.1,0.7,4,1.6,5.6,2.9c1.6,1.2,3,2.8,4,4.7c1,1.9,1.7,4,2.1,6.4H-1c-0.1-2.8-1.2-4.9-3.1-6.3
			c-1.9-1.5-4.3-2.2-7.1-2.2c-2,0-3.7,0.4-5.3,1.1c-1.6,0.7-3,1.9-4.1,3.4c-1.2,1.5-2.1,3.3-2.7,5.5c-0.6,2.2-1,4.8-1,7.7
			c0,2.9,0.3,5.5,1,7.7c0.6,2.2,1.5,4.1,2.7,5.5c1.2,1.5,2.5,2.6,4.1,3.3c1.6,0.7,3.4,1.1,5.3,1.1c1.3,0,2.6-0.2,3.8-0.5
			c1.2-0.4,2.3-0.9,3.2-1.6c0.9-0.7,1.7-1.6,2.2-2.6c0.6-1.1,0.9-2.3,1-3.7h8.4c-0.4,2.5-1.1,4.6-2.1,6.4c-1,1.8-2.4,3.4-4,4.6
			c-1.6,1.3-3.5,2.2-5.6,2.8C-6.3,318.4-8.6,318.7-11.1,318.7"/>
		<path class="st1" d="M30.6,318.7c-3.2,0-6.2-0.5-8.8-1.6c-2.7-1.1-4.9-2.6-6.8-4.7c-1.9-2-3.4-4.6-4.4-7.5
			c-1.1-3-1.6-6.4-1.6-10.3c0-3.8,0.5-7.2,1.6-10.2c1-3,2.5-5.5,4.4-7.6c1.9-2.1,4.2-3.7,6.8-4.7c2.7-1.1,5.6-1.6,8.9-1.6
			c2.5,0,4.8,0.3,6.9,1c2.1,0.7,4,1.6,5.6,2.9c1.6,1.2,3,2.8,4,4.7c1,1.9,1.7,4,2.1,6.4h-8.4c-0.1-2.8-1.2-4.9-3.1-6.3
			c-1.9-1.5-4.3-2.2-7.1-2.2c-2,0-3.7,0.4-5.3,1.1c-1.6,0.7-3,1.9-4.1,3.4c-1.2,1.5-2.1,3.3-2.7,5.5c-0.6,2.2-1,4.8-1,7.7
			c0,2.9,0.3,5.5,1,7.7c0.6,2.2,1.5,4.1,2.7,5.5c1.2,1.5,2.5,2.6,4.1,3.3c1.6,0.7,3.4,1.1,5.3,1.1c1.3,0,2.6-0.2,3.8-0.5
			c1.2-0.4,2.3-0.9,3.2-1.6c0.9-0.7,1.7-1.6,2.2-2.6c0.6-1.1,0.9-2.3,1-3.7h8.4c-0.4,2.5-1.1,4.6-2.1,6.4c-1,1.8-2.4,3.4-4,4.6
			c-1.6,1.3-3.5,2.2-5.6,2.8C35.3,318.4,33,318.7,30.6,318.7"/>
	</g>
</g>
<path class="st1" d="M-28.6,236.4h-46.3v-5.6h46.3V236.4z M-28.6,249.3h-47.1v-5.6h47.1V249.3z M-80.9,354.9h-5.6V217.5h58v5.6
	h-52.3V354.9z"/>
<g>
	<g>
		<path class="st2" d="M-91,335.3h-8.2v-23.2c-3.7,4.4-8.1,6.6-13.2,6.6c-3.1,0-5.8-0.6-8.1-1.7c-2.4-1.1-4.4-2.7-6-4.8
			c-1.6-2-2.8-4.5-3.7-7.5c-0.8-2.9-1.3-6.2-1.3-9.7c0-3.8,0.5-7.2,1.5-10.3c1-3,2.4-5.6,4.1-7.7c1.7-2.1,3.8-3.7,6.2-4.9
			c2.4-1.1,4.9-1.7,7.7-1.7c5,0,9.2,1.6,12.7,4.6v-3.5h8.2V335.3z M-99.2,304.3v-21.8c-3.6-3.7-7.7-5.6-12.2-5.6
			c-3.5,0-6.3,1.5-8.4,4.5c-2.1,3-3.1,7.5-3.1,13.6c0,5.7,1,10,3,12.9c2,2.9,4.7,4.4,8.3,4.4C-107.1,312.3-102.9,309.7-99.2,304.3"
			/>
	</g>
</g>
<polygon class="st2" points="-5.9,236.8 -40.1,203.9 -74.8,236.4 -78.6,232.3 -40,196 -38,198.1 -2,232.7 "/>
<rect x="-23.2" y="219.5" class="st2" width="5.6" height="29.9"/>
<rect x="68.7" y="271.9" class="st0" width="3.3" height="45.7"/>
</svg>
