<?xml version="1.0" encoding="UTF-8"?>
<svg xmlns="http://www.w3.org/2000/svg" xmlns:xlink="http://www.w3.org/1999/xlink" viewBox="0 0 841.86 848.22">
  <defs>
    <clipPath id="shield-clip-a">
      <path d="M820.93,132.9c-1.4,295.09-161.77,552.58-400,691.22C182.7,685.48,22.33,427.99,20.93,132.9c145.76-.66,282.37-40.16,400-108.78,117.63,68.62,254.24,108.12,400,108.78Z"/>
    </clipPath>
    <clipPath id="shield-clip-b">
      <polygon points="421.77 825.96 820.92 609.97 822.62 25.78 22.62 25.78 22.62 609.97 421.77 825.96"/>
    </clipPath>
  </defs>
  <g clip-path="url(#shield-clip-a)">
    <g clip-path="url(#shield-clip-b)">
      <polygon fill="#db0695" points="293.75 2487.08 123.54 2487.08 123.54 -145.19 208.65 -383.04 293.75 -145.19 293.75 2487.08"/>
      <polygon fill="#db0695" points="722.26 2487.08 552.05 2487.08 552.05 14.15 637.16 -209.31 722.26 14.15 722.26 2487.08"/>
      <polygon fill="#db0695" points="508.02 2487.08 337.81 2487.08 337.81 -193.36 422.91 -435.57 508.02 -193.36 508.02 2487.08"/>
      <rect fill="#db0695" x="21.43" y="268.54" width="803.21" height="78.31"/>
      <rect fill="#db0695" x="21.43" y="544.8" width="799.81" height="78.31"/>
    </g>
  </g>
  <path stroke="#db0695" stroke-width="41.67" stroke-miterlimit="10" fill="none" d="M820.93,132.9c-1.4,295.09-161.77,552.58-400,691.22C182.7,685.48,22.33,427.99,20.93,132.9c145.76-.66,282.37-40.16,400-108.78,117.63,68.62,254.24,108.12,400,108.78Z"/>
</svg>
