<?xml version="1.0" encoding="UTF-8"?>
<svg id="Layer_1" data-name="Layer 1" xmlns="http://www.w3.org/2000/svg" xmlns:xlink="http://www.w3.org/1999/xlink" viewBox="0 0 3664.93 1251.25">
  <defs>
    <style>
      .cls-1, .cls-2 {
        fill: none;
      }

      .cls-2 {
        stroke: #fff;
        stroke-miterlimit: 10;
        stroke-width: 22.91px;
      }

      .cls-3 {
        clip-path: url(#clippath-1);
      }

      .cls-4 {
        fill: #fff;
      }

      .cls-5 {
        clip-path: url(#clippath);
      }
    </style>
    <clipPath id="clippath">
      <path class="cls-1" d="M646.46,477.19c-.77,162.24-88.94,303.8-219.92,380.02-130.98-76.22-219.14-217.78-219.92-380.02,80.14-.36,155.24-22.08,219.92-59.81,64.67,37.73,139.78,59.45,219.92,59.81Z"/>
    </clipPath>
    <clipPath id="clippath-1">
      <polygon class="cls-1" points="427 858.23 646.45 739.48 647.39 418.3 207.56 418.3 207.56 739.48 427 858.23"/>
    </clipPath>
  </defs>
  <g>
    <g class="cls-5">
      <path class="cls-1" d="M646.46,477.19c-.77,162.24-88.94,303.8-219.92,380.02-130.98-76.22-219.14-217.78-219.92-380.02,80.14-.36,155.24-22.08,219.92-59.81,64.67,37.73,139.78,59.45,219.92,59.81Z"/>
      <g class="cls-3">
        <polygon class="cls-4" points="356.62 1771.49 263.04 1771.49 263.04 324.3 309.83 193.53 356.62 324.3 356.62 1771.49"/>
        <polygon class="cls-4" points="592.21 1771.49 498.63 1771.49 498.63 411.9 545.42 289.05 592.21 411.9 592.21 1771.49"/>
        <polygon class="cls-4" points="474.42 1771.49 380.84 1771.49 380.84 297.82 427.63 164.65 474.42 297.82 474.42 1771.49"/>
        <rect class="cls-4" x="206.9" y="551.76" width="441.6" height="43.05"/>
        <rect class="cls-4" x="206.9" y="703.65" width="439.72" height="43.05"/>
      </g>
    </g>
    <g>
      <path class="cls-2" d="M646.46,477.19c-.77,162.24-88.94,303.8-219.92,380.02-130.98-76.22-219.14-217.78-219.92-380.02,80.14-.36,155.24-22.08,219.92-59.81,64.67,37.73,139.78,59.45,219.92,59.81Z"/>
      <path class="cls-2" d="M646.46,477.19c-.77,162.24-88.94,303.8-219.92,380.02-130.98-76.22-219.14-217.78-219.92-380.02,80.14-.36,155.24-22.08,219.92-59.81,64.67,37.73,139.78,59.45,219.92,59.81Z"/>
    </g>
  </g>
  <g>
    <path class="cls-4" d="M939.86,605c0-26.15-5.16-30.28-37.5-30.28-35.78,0-43.35,4.82-43.35,26.84,0,14.11,4.13,20.64,14.45,23.4q4.82,1.03,41.97,3.44c36.81,2.06,49.54,4.82,61.24,12.39,14.79,9.63,19.96,23.05,19.96,53.33s-4.13,45.07-15.14,55.39c-14.45,13.42-32.69,17.2-78.79,17.2-56.08,0-76.04-5.5-87.39-23.74-7.23-11.01-9.63-23.05-9.63-51.61h50.58v4.13c0,12.39,2.06,19.27,7.23,24.08,5.5,4.47,10.32,5.16,41.63,5.16,20.99,0,26.15-1.03,32-5.5,4.82-3.78,7.23-11.01,7.23-23.05,0-9.98-1.72-16.17-6.19-19.27q-5.5-4.47-47.14-7.23c-37.5-2.41-48.17-4.13-59.87-9.98-17.89-8.95-25.12-25.8-25.12-58.49,0-27.52,5.85-44.38,18.58-53.67,14.79-10.32,33.37-13.76,76.04-13.76,46.79,0,65.71,4.47,77.41,18.24,8.6,10.32,12.73,24.08,12.73,43.69,0,1.38,0,5.5-.34,9.29h-50.58Z"/>
    <path class="cls-4" d="M1225.43,764.98h-52.98v-93.93h-92.89v93.93h-52.98v-229.48h52.98v90.14h92.89v-90.14h52.98v229.48Z"/>
    <path class="cls-4" d="M1314.19,764.98h-52.98v-229.48h52.98v229.48Z"/>
    <path class="cls-4" d="M1406.05,629.42h102.18v37.5h-102.18v54.36h110.1v43.7h-163.08v-229.48h161.71v43.69h-108.72v50.23Z"/>
    <path class="cls-4" d="M1601.13,719.22h101.5v45.76h-154.48v-229.48h52.98v183.72Z"/>
    <path class="cls-4" d="M1724.3,535.5h116.63c61.93,0,87.73,26.49,87.73,90.49s-1.72,84.98-8.95,100.81c-12.73,26.84-36.13,38.19-79.82,38.19h-115.6v-229.48ZM1833.02,719.57c18.23,0,27.52-3.79,33.72-13.42,6.19-9.63,7.91-22.36,7.91-57.8,0-33.03-1.72-46.1-7.57-54.71-5.5-8.6-14.79-12.04-32.69-12.04h-57.11v137.97h55.74Z"/>
    <path class="cls-4" d="M2098.62,632.52h97.71v43.69h-97.71v88.77h-52.98v-229.48h157.23v43.69h-104.25v53.33Z"/>
    <path class="cls-4" d="M2282,629.42h102.18v37.5h-102.18v54.36h110.1v43.7h-163.08v-229.48h161.71v43.69h-108.72v50.23Z"/>
    <path class="cls-4" d="M2645.31,764.98h-89.45l-50.58-111.13c-6.19-13.76-9.29-21.33-22.02-54.71l-7.23-18.23h-2.06c1.38,31.65,2.06,55.74,2.06,72.94v111.13h-51.95v-229.48h88.77l47.82,106.31c10.67,23.74,11.35,25.46,24.08,57.46l7.91,18.92h2.06l-.69-17.89c-1.38-25.8-1.38-28.9-1.38-53.33v-111.47h52.64v229.48Z"/>
    <path class="cls-4" d="M2872.73,680.69v7.23c0,36.81-3.78,49.54-17.89,61.93-7.91,6.88-20.3,12.73-32,14.79-7.57,1.38-26.49,2.06-49.89,2.06-43.7,0-56.08-2.75-72.94-16.17-11.35-8.95-19.96-25.12-22.02-41.97-1.72-14.79-3.1-45.07-3.1-77.07,0-42.66,5.16-61.59,20.64-76.38,17.89-17.2,35.44-21.33,90.14-21.33,32,0,42.66,1.38,55.39,7.23,15.83,7.22,24.43,19.27,27.87,39.22,1.38,7.57,1.72,13.42,2.41,34.75h-52.64c-.34-16.51-1.03-19.96-3.78-25.12-4.47-7.91-13.42-10.32-37.5-10.32-22.71,0-33.37,2.41-39.57,8.6-7.23,7.57-8.26,15.14-8.26,64,0,39.57,1.03,47.82,6.19,56.77,5.16,9.29,15.48,12.39,39.91,12.39,25.8,0,37.16-3.44,41.63-12.73,2.75-5.5,3.1-8.95,3.1-23.4v-4.47h52.3Z"/>
    <path class="cls-4" d="M2952.21,764.98h-52.98v-229.48h52.98v229.48Z"/>
    <path class="cls-4" d="M3212.31,764.98h-89.45l-50.58-111.13c-6.19-13.76-9.29-21.33-22.02-54.71l-7.23-18.23h-2.06c1.38,31.65,2.06,55.74,2.06,72.94v111.13h-51.95v-229.48h88.77l47.82,106.31c10.67,23.74,11.35,25.46,24.08,57.46l7.91,18.92h2.06l-.69-17.89c-1.38-25.8-1.38-28.9-1.38-53.33v-111.47h52.64v229.48Z"/>
    <path class="cls-4" d="M3447.3,639.06c.34,14.11.69,29.24.69,45.42,0,35.44-3.78,49.89-16.17,63.31-14.11,14.79-33.03,18.92-87.05,18.92-34.06,0-48.17-1.72-61.59-7.23-29.93-12.73-41.29-36.47-41.29-87.73,0-56.42,1.38-75.35,6.54-91.17,6.54-21.33,22.36-35.78,45.42-42.32,11.35-3.1,27.87-4.47,59.87-4.47,40.94,0,54.36,2.06,69.84,11.01,16.17,9.29,22.71,26.49,23.74,60.9h-53.67c-2.06-23.74-7.91-27.52-45.07-27.52-29.93,0-41.63,3.79-47.48,15.83-4.47,8.95-4.82,10.67-5.16,52.64.69,50.58.69,50.92,4.82,60.21,4.82,11.35,17.2,15.48,45.07,15.48,40.94,0,49.54-6.54,49.54-38.19,0-.69-.34-4.13-.69-7.57h-49.89v-37.5h102.53Z"/>
  </g>
  <g>
    <rect class="cls-1" x="198.59" y="198.59" width="3267.75" height="854.06"/>
    <rect class="cls-1" x="3466.34" y="0" width="198.59" height="198.59"/>
    <rect class="cls-1" x="3466.34" y="1052.65" width="198.59" height="198.59"/>
    <rect class="cls-1" x="0" y="0" width="198.59" height="198.59"/>
    <rect class="cls-1" x="0" y="1052.65" width="198.59" height="198.59"/>
  </g>
</svg>
